<svg xmlns="http://www.w3.org/2000/svg" version="1.1" xmlns:xlink="http://www.w3.org/1999/xlink" xmlns:svgjs="http://svgjs.dev/svgjs" viewBox="0 0 800 800"><g transform="matrix(1,0,0,1,0,0)"><path d="M0 629.7291564941406L47.00000300326968 656.8645813097369V711.1354309409296L0 738.270855756526L-47.00000300326968 711.1354309409296V656.8645813097369L0 629.7291564941406Z " stroke-width="0.5" stroke="#ff3895" fill="none" opacity="0.1" transform="rotate(89, 400, 400)"></path><path d="M33.333333333333314 586.432607014974L97.33333742289204 623.3829727213179V697.2837041340058L33.333333333333314 734.2340698403498L-30.666670756225415 697.2837041340058V623.3829727213179L33.333333333333314 586.432607014974Z " stroke-width="0.5833333333333334" stroke="#f645a1" fill="none" opacity="0.175" transform="rotate(81.41666666666667, 400, 400)"></path><path d="M66.66666666666669 543.1360575358073L147.6666718425144 589.9013641328988V683.4319773270819L66.66666666666669 730.1972839241735L-14.333338509181033 683.4319773270819V589.9013641328988L66.66666666666669 543.1360575358073Z " stroke-width="0.6666666666666666" stroke="#ed50ab" fill="none" opacity="0.25" transform="rotate(73.83333333333333, 400, 400)"></path><path d="M100 499.8395080566406L198.00000626213676 556.4197555444798V669.5802505201581L100 726.1604980079973L1.9999937378632353 669.5802505201581V556.4197555444798L100 499.8395080566406Z " stroke-width="0.75" stroke="#e35ab5" fill="none" opacity="0.32499999999999996" transform="rotate(66.25, 400, 400)"></path><path d="M133.33333333333334 456.542958577474L248.33334068175915 522.9381469560608V655.7285237132343L133.33333333333334 722.1237120918211L18.333325984907532 655.7285237132343V522.9381469560608L133.33333333333334 456.542958577474Z " stroke-width="0.8333333333333333" stroke="#d962bf" fill="none" opacity="0.4" transform="rotate(58.66666666666667, 400, 400)"></path><path d="M166.66666666666669 413.24640909830725L298.6666751013815 489.45653836764166V641.8767969063103L166.66666666666669 718.0869261756447L34.666658231951885 641.8767969063103V489.45653836764166L166.66666666666669 413.24640909830725Z " stroke-width="0.9166666666666666" stroke="#cf6ac8" fill="none" opacity="0.475" transform="rotate(51.083333333333336, 400, 400)"></path><path d="M200 369.9498596191406L349.0000095210039 455.97492977922263V628.0250700993865L200 714.0501402594685L50.99999047899615 628.0250700993865V455.97492977922263L200 369.9498596191406Z " stroke-width="1" stroke="#c472d1" fill="none" opacity="0.5499999999999999" transform="rotate(43.5, 400, 400)"></path><path d="M233.33333333333334 326.6533101399739L399.33334394062626 422.4933211908035V614.1733432924626L233.33333333333334 710.0133543432922L67.33332272604045 614.1733432924626V422.4933211908035L233.33333333333334 326.6533101399739Z " stroke-width="1.0833333333333333" stroke="#b879d9" fill="none" opacity="0.625" transform="rotate(35.91666666666667, 400, 400)"></path><path d="M266.6666666666667 283.35676066080725L449.66667836024857 389.0117126023845V600.3216164855388L266.6666666666667 705.976568427116L83.66665497308475 600.3216164855388V389.0117126023845L266.6666666666667 283.35676066080725Z " stroke-width="1.1666666666666665" stroke="#ab7fe1" fill="none" opacity="0.7" transform="rotate(28.333333333333336, 400, 400)"></path><path d="M300 240.06021118164062L500.000012779871 355.5301040139654V586.4698896786151L300 701.9397825109397L99.99998722012907 586.4698896786151V355.5301040139654L300 240.06021118164062Z " stroke-width="1.25" stroke="#9e86e9" fill="none" opacity="0.7749999999999999" transform="rotate(20.75, 400, 400)"></path><path d="M333.33333333333337 196.76366170247394L550.3333471994933 322.0484954255464V572.6181628716911L333.33333333333337 697.9029965947636L116.3333194671734 572.6181628716911V322.0484954255464L333.33333333333337 196.76366170247394Z " stroke-width="1.3333333333333333" stroke="#8f8cf1" fill="none" opacity="0.85" transform="rotate(13.166666666666671, 400, 400)"></path><path d="M366.6666666666667 153.46711222330725L600.6666816191157 288.5668868371273V558.7664360647673L366.6666666666667 693.8662106785873L132.66665171421766 558.7664360647673V288.5668868371273L366.6666666666667 153.46711222330725Z " stroke-width="1.4166666666666665" stroke="#7e91f8" fill="none" opacity="0.9249999999999999" transform="rotate(5.583333333333343, 400, 400)"></path><path d="M400.00001525878906 110.17056274414062L651.0000312975271 255.08527824870828V544.9147092578435L400.00001525878906 689.8294247624111L148.99999922005105 544.9147092578435V255.08527824870828L400.00001525878906 110.17056274414062Z " stroke-width="1.5" stroke="#6b97ff" fill="none" opacity="0.9999999999999999" transform="rotate(-2, 400, 400)"></path></g></svg>
