<svg width="29" height="29" viewBox="0 0 29 29" fill="none" xmlns="http://www.w3.org/2000/svg">
<path d="M22.605 23.9804C20.2875 26.2979 14.3527 24.1203 9.34918 19.1168C4.34564 14.1133 2.16811 8.17845 4.48554 5.86101L6.01139 4.33516C7.06476 3.28178 8.80047 3.30963 9.8882 4.39735L12.2516 6.76076C13.3393 7.84849 13.3672 9.58419 12.3138 10.6376L11.9861 10.9653C11.4173 11.534 11.3617 12.4515 11.8901 13.0919C12.3999 13.7096 12.9494 14.3249 13.5453 14.9207C14.1411 15.5166 14.7564 16.0661 15.3741 16.5758C16.0145 17.1043 16.9319 17.0487 17.5007 16.4799L17.8284 16.1522C18.8818 15.0988 20.6175 15.1266 21.7052 16.2144L24.0686 18.5778C25.1564 19.6655 25.1842 21.4012 24.1308 22.4546L22.605 23.9804Z" stroke="white" stroke-width="1.7787"/>
</svg>
