<svg width="27" height="27" viewBox="0 0 27 27" fill="none" xmlns="http://www.w3.org/2000/svg">
<path d="M17.7383 8.87012C19.5026 8.87012 21.1946 9.57099 22.4422 10.8185C23.6897 12.0661 24.3906 13.7581 24.3906 15.5225V23.2835H19.9557V15.5225C19.9557 14.9344 19.7221 14.3703 19.3062 13.9545C18.8904 13.5386 18.3264 13.305 17.7383 13.305C17.1502 13.305 16.5862 13.5386 16.1703 13.9545C15.7545 14.3703 15.5208 14.9344 15.5208 15.5225V23.2835H11.0859V15.5225C11.0859 13.7581 11.7868 12.0661 13.0344 10.8185C14.2819 9.57099 15.974 8.87012 17.7383 8.87012Z" stroke="white" stroke-width="1.7787" stroke-linecap="round" stroke-linejoin="round"/>
<path d="M6.65364 9.97852H2.21875V23.2832H6.65364V9.97852Z" stroke="white" stroke-width="1.7787" stroke-linecap="round" stroke-linejoin="round"/>
<path d="M4.4362 6.65315C5.66086 6.65315 6.65364 5.66037 6.65364 4.43571C6.65364 3.21105 5.66086 2.21826 4.4362 2.21826C3.21153 2.21826 2.21875 3.21105 2.21875 4.43571C2.21875 5.66037 3.21153 6.65315 4.4362 6.65315Z" stroke="white" stroke-width="1.7787" stroke-linecap="round" stroke-linejoin="round"/>
</svg>
