<?xml version="1.0" encoding="utf-8"?>
<!-- Generator: Adobe Illustrator 16.0.0, SVG Export Plug-In . SVG Version: 6.00 Build 0)  -->
<!DOCTYPE svg PUBLIC "-//W3C//DTD SVG 1.1//EN" "http://www.w3.org/Graphics/SVG/1.1/DTD/svg11.dtd">
<svg version="1.1" id="Layer_1" xmlns="http://www.w3.org/2000/svg" xmlns:xlink="http://www.w3.org/1999/xlink" x="0px" y="0px"
	 width="150px" height="140px" viewBox="0 0 150 140" style="enable-background:new 0 0 300 280;" xml:space="preserve">
<style type="text/css">
<![CDATA[
	.st0{clip-path:url(#SVGID_2_);fill:#0C7574;}
	.st1{clip-path:url(#SVGID_2_);fill:#FFFFFF;}
	.st2{fill:#007773;}
]]>
</style>
<rect x="41.7" y="118" class="st2" width="53" height="44"/>
<g>
	<defs>
		<rect id="SVGID_1_" width="300" height="280"/>
	</defs>
	<clipPath id="SVGID_2_">
		<use xlink:href="#SVGID_1_"  style="overflow:visible;"/>
	</clipPath>
	<path class="st1" d="M81.3,136.7h4.2c0,0-2.4-5.2-9.9-6.9C75.7,129.8,80.4,132.6,81.3,136.7"/>
	<path class="st1" d="M73.6,139.8h12.7c0,0,1.5,9.6-13.7,11.4c0,0,8.3-2.9,8.9-8.1h-4.6C75,143.2,73.5,141.7,73.6,139.8"/>
	<path class="st1" d="M64.5,130c0,0-6.9,3.6-6.1,11.2c0.8,7.6,7.7,9.4,9.3,9.8c0,0-12.5,0-13.6-10.3C54,140.7,53.2,132.6,64.5,130"
		/>
	<path class="st0" d="M115.2,140.9c0,5.7,4.6,9.4,11.7,9.4c2.2,0,4.3-0.3,5.9-0.9c-0.1-4.8-0.3-6-0.5-7.6c1.1,0,2.2,0.1,3.2,0.1
		c1,0,2.2-0.1,3.2-0.1c-0.2,1.8-0.5,2.9-0.5,8.8c-1.1,0.2-2.4,0.6-3.7,0.9c-2.3,0.5-4.9,1-7.7,1c-10,0-18.5-3.6-18.5-11.6
		c0-7.1,7.1-11.1,18.4-11.1c3.6,0,7.1,0.5,10.3,1.5c0.4,0.1,0.7,0.3,0.9,0.7l0.5,4.5l-0.4,0.1c-1.7-2.6-5.4-4.7-11.2-4.7
		C120.3,131.9,115.2,134.8,115.2,140.9"/>
	<path class="st0" d="M166.3,130.9l0.7,3.4l-0.4,0.1c-0.7-1.1-2.3-1.4-4.1-1.4h-12.6c0,2.2-0.2,4.4-0.2,6.6h7.4
		c1.4,0,4.6-0.1,5.8-0.4c-0.1,0.6-0.1,1.1-0.1,1.7s0,0.9,0.1,1.6c-1.2-0.3-4.3-0.4-5.8-0.4h-7.4c0,2.4,0.2,4.7,0.2,7.1h11.4
		c3.1,0,4.7-0.3,6.7-2.4l0.4,0.2l-2.1,4.1c-0.3,0.5-0.4,0.6-1,0.6c-8.5,0-11.4-0.1-14.1-0.1c-2.5,0-5.6,0.1-8.1,0.1
		c0.2-2.1,0.5-5,0.5-10.8c0-7.1-0.3-8.4-0.5-10.5c2.6,0.1,5.7,0.1,8.2,0.1c2.5,0,5.4-0.1,14.4-0.1
		C166.1,130.5,166.2,130.6,166.3,130.9"/>
	<path class="st0" d="M188.4,129.8c9.3,0,17.4,3.9,17.4,10.9c0,6.7-7.1,11.7-18.2,11.7c-9.2,0-17.3-4-17.3-11
		C170.3,134.7,177.5,129.8,188.4,129.8 M177.4,141.1c0,5.8,4.3,9.2,10.7,9.2c5.9,0,10.6-3,10.6-9.1c0-5.8-4.3-9.3-10.7-9.3
		C182.2,131.9,177.4,135,177.4,141.1"/>
	<path class="st0" d="M216.5,148.4c0,7.1-4.7,10.3-10.8,12.9l-0.2-0.4c4.6-2.5,4.9-5.5,4.9-12.4c0-2.5,0.1-5.1,0.1-7.5
		c0-7.1-0.3-8.4-0.5-10.5c1.1,0.1,2.4,0.1,3.5,0.1s2.3-0.1,3.5-0.1c-0.2,2.1-0.5,3.3-0.5,10.5C216.3,143.5,216.5,146,216.5,148.4"/>
	<path class="st0" d="M224.4,151.6c-1.1,0-2.4,0.1-3.5,0.1c0.2-2.1,0.5-5,0.5-10.8c0-7.1-0.2-8.4-0.5-10.5c1.1,0.1,2.4,0.1,3.5,0.1
		c1.1,0,2.3-0.1,3.5-0.1c-0.2,2.1-0.5,3.4-0.5,10.5c0,5.8,0.3,8.7,0.5,10.8C226.7,151.7,225.5,151.6,224.4,151.6"/>
	<path class="st0" d="M244.4,151.6c-1.1,0-2.3,0.1-3.5,0.1c0.2-2.1,0.5-5,0.5-10.8c0-4.4-0.1-6.5-0.2-8.1h-7.1
		c-1.3,0-2.2,0.5-3.2,1.8l-0.4-0.1l0.7-4.2h0.5c0.7,0.1,1.4,0.1,2.3,0.1h20.8c0.9,0,1.9,0,2.4-0.1h0.4l0.7,4.2l-0.4,0.1
		c-0.9-1.3-1.9-1.8-3.2-1.8h-7.2c-0.1,1.5-0.2,3.7-0.2,8.1c0,5.8,0.3,8.7,0.5,10.8C246.7,151.7,245.5,151.6,244.4,151.6"/>
</g>
</svg>
