<svg width="192" height="136" viewBox="0 0 192 136" fill="none" xmlns="http://www.w3.org/2000/svg">
<path d="M115.915 87.5434C94.0628 36.9682 129.308 10.3561 149.662 3.37207C145.044 7.0275 143.328 22.0803 144.556 28.8479C147.551 45.3486 147.981 57.0975 139.23 64.0249C118.005 80.8283 121.758 88.8716 119.952 94.1716C116.303 81.5798 121.389 67.1345 124.387 61.4858C132.767 47.5242 128.78 41.6574 125.275 40.8376C109.865 41.1294 111.92 73.5385 115.915 87.5434Z" fill="url(#paint0_linear_948_800)"/>
<path fill-rule="evenodd" clip-rule="evenodd" d="M148.196 4.30833L149.153 3.18042C148.944 3.49962 148.749 3.82458 148.565 4.15493C148.443 4.20546 148.32 4.25658 148.196 4.30833ZM146.591 18.5126C146.205 22.5802 146.266 26.5403 146.769 29.235C149.961 46.3214 150.473 58.4786 141.473 65.6033C126.352 77.5743 122.85 85.348 121.516 90.8146C125.113 85.7901 132.65 77.9193 143.964 70.6975C149.417 66.4797 159.078 56.053 153.74 43.6083C153.445 41.8762 152.538 39.3126 151.452 36.2471C149.666 31.2047 147.399 24.8041 146.591 18.5126Z" fill="url(#paint1_linear_948_800)"/>
<path d="M124.055 91.698C145.608 65.4041 170.175 77.2029 179.764 86.3891C176.453 84.8912 167.712 88.2092 164.349 90.7976C156.147 97.109 149.825 100.669 143.55 97.8298C128.329 90.9442 124.98 95.2784 121.562 95.7874C127.436 90.2237 136.797 88.9254 140.743 88.9715C150.77 89.6163 152.86 85.7706 152.317 83.616C147.797 75.2473 130.606 85.5448 124.055 91.698Z" fill="url(#paint2_linear_948_800)"/>
<path fill-rule="evenodd" clip-rule="evenodd" d="M178.835 85.8494L179.726 86.0555C179.491 86.031 179.257 86.0156 179.024 86.0085C178.962 85.9555 178.899 85.9026 178.835 85.8494ZM170.59 88.99C168.251 89.9291 166.097 91.0825 164.762 92.1207C156.295 98.7054 149.773 102.426 143.319 99.5067C132.477 94.6017 127.223 94.8798 123.848 95.6948C127.621 96.2462 134.069 98.1526 141.23 102.313C145.086 104.11 153.538 106.459 158.852 100.01C159.719 99.3581 160.868 98.1349 162.242 96.6721C164.501 94.2664 167.369 91.2132 170.59 88.99Z" fill="url(#paint3_linear_948_800)"/>
<path d="M149.204 113.832C129.796 113.804 101.356 87.6129 104.365 77.1868C111.193 81.0308 123.674 111.936 149.204 113.832Z" fill="#AD59AE"/>
<path d="M100.668 74.0404C95.0119 67.9288 80.5814 55.9706 68.1055 57.0298" stroke="url(#paint4_linear_948_800)" stroke-width="0.284658"/>
<path d="M101.653 71.7941C98.0935 64.5063 88.1771 49.6298 76.9844 48.4263" stroke="url(#paint5_linear_948_800)" stroke-width="0.284658"/>
<path d="M3.78125 116.107V90.6018H8.51795V116.107H3.78125ZM15.4166 116.107V90.6018H27.3677C30.4283 90.6018 32.7603 91.209 34.3635 92.4236C35.9666 93.6138 36.7682 95.217 36.7682 97.2332C36.7682 98.5936 36.4526 99.7595 35.8209 100.731C35.1892 101.678 34.3393 102.419 33.2704 102.954C32.226 103.464 31.0842 103.719 29.8454 103.719L30.5012 102.407C31.9345 102.407 33.2217 102.674 34.3635 103.209C35.5052 103.719 36.4039 104.472 37.0597 105.468C37.7398 106.464 38.0799 107.703 38.0799 109.184C38.0799 111.37 37.2419 113.071 35.5658 114.285C33.8898 115.5 31.3999 116.107 28.0964 116.107H15.4166ZM20.1533 112.391H27.8049C29.5781 112.391 30.9385 112.099 31.8858 111.516C32.8331 110.933 33.3068 109.998 33.3068 108.711C33.3068 107.448 32.8331 106.524 31.8858 105.941C30.9385 105.334 29.5781 105.031 27.8049 105.031H19.789V101.35H26.8576C28.5094 101.35 29.7725 101.059 30.647 100.476C31.5456 99.893 31.9951 99.0186 31.9951 97.8526C31.9951 96.6625 31.5456 95.7758 30.647 95.1928C29.7725 94.6098 28.5094 94.3183 26.8576 94.3183H20.1533V112.391ZM51.8434 116.362C49.6815 116.362 47.7868 115.937 46.1594 115.087C44.5562 114.212 43.3051 113.022 42.4065 111.516C41.532 110.01 41.0948 108.298 41.0948 106.379C41.0948 104.435 41.5197 102.723 42.37 101.241C43.2445 99.7351 44.4346 98.5571 45.9408 97.7069C47.4711 96.8566 49.2078 96.4316 51.1511 96.4316C53.0458 96.4316 54.7341 96.8446 56.2158 97.6704C57.6974 98.4962 58.8634 99.6622 59.7136 101.168C60.5639 102.674 60.9889 104.448 60.9889 106.488C60.9889 106.682 60.9767 106.901 60.9525 107.144C60.9525 107.387 60.9402 107.618 60.916 107.836H44.7019V104.812H58.5113L56.7259 105.759C56.7501 104.642 56.5195 103.658 56.0336 102.808C55.5477 101.958 54.8799 101.29 54.0296 100.804C53.2038 100.318 52.2442 100.075 51.1511 100.075C50.0339 100.075 49.0501 100.318 48.1998 100.804C47.374 101.29 46.7182 101.97 46.2323 102.844C45.7708 103.695 45.54 104.703 45.54 105.869V106.597C45.54 107.763 45.8073 108.796 46.3416 109.694C46.8759 110.593 47.6291 111.285 48.6006 111.771C49.5721 112.257 50.6897 112.5 51.9527 112.5C53.0458 112.5 54.0296 112.33 54.9041 111.99C55.7785 111.65 56.5559 111.115 57.236 110.387L59.6772 113.192C58.8027 114.212 57.6974 115.002 56.3615 115.561C55.0498 116.095 53.5437 116.362 51.8434 116.362ZM67.5235 116.107V94.6098H59.0703V90.6018H80.7134V94.6098H72.2602V116.107H67.5235ZM90.5831 116.362C88.5913 116.362 86.8179 115.937 85.2634 115.087C83.7089 114.212 82.482 113.022 81.5833 111.516C80.6847 110.01 80.2352 108.298 80.2352 106.379C80.2352 104.435 80.6847 102.723 81.5833 101.241C82.482 99.7351 83.7089 98.5571 85.2634 97.7069C86.8179 96.8566 88.5913 96.4316 90.5831 96.4316C92.5993 96.4316 94.3847 96.8566 95.9392 97.7069C97.5182 98.5571 98.7448 99.7231 99.6192 101.205C100.518 102.686 100.967 104.411 100.967 106.379C100.967 108.298 100.518 110.01 99.6192 111.516C98.7448 113.022 97.5182 114.212 95.9392 115.087C94.3847 115.937 92.5993 116.362 90.5831 116.362ZM90.5831 112.464C91.7003 112.464 92.6964 112.221 93.5708 111.735C94.4453 111.249 95.1253 110.545 95.6113 109.622C96.1214 108.698 96.3764 107.618 96.3764 106.379C96.3764 105.116 96.1214 104.035 95.6113 103.136C95.1253 102.213 94.4453 101.508 93.5708 101.023C92.6964 100.537 91.7126 100.294 90.6195 100.294C89.5022 100.294 88.5062 100.537 87.6317 101.023C86.7815 101.508 86.1014 102.213 85.5913 103.136C85.0812 104.035 84.8261 105.116 84.8261 106.379C84.8261 107.618 85.0812 108.698 85.5913 109.622C86.1014 110.545 86.7815 111.249 87.6317 111.735C88.5062 112.221 89.49 112.464 90.5831 112.464Z" fill="url(#paint6_linear_948_800)"/>
<path d="M3.96484 132.617V125.643H4.96115V132.617H3.96484ZM9.72916 127.287C10.1609 127.287 10.5395 127.37 10.8649 127.536C11.197 127.702 11.4561 127.955 11.6421 128.293C11.828 128.632 11.921 129.06 11.921 129.578V132.617H10.9646V129.688C10.9646 129.177 10.8384 128.791 10.586 128.532C10.3402 128.273 9.9915 128.144 9.53987 128.144C9.20112 128.144 8.90553 128.21 8.65316 128.343C8.40075 128.476 8.20482 128.672 8.06534 128.931C7.93249 129.19 7.86608 129.512 7.86608 129.897V132.617H6.90963V127.337H7.82623V128.762L7.67678 128.383C7.84945 128.038 8.11515 127.769 8.47382 127.576C8.83249 127.383 9.25094 127.287 9.72916 127.287ZM16.5106 127.287C16.9424 127.287 17.321 127.37 17.6464 127.536C17.9785 127.702 18.2376 127.955 18.4235 128.293C18.6095 128.632 18.7025 129.06 18.7025 129.578V132.617H17.746V129.688C17.746 129.177 17.6198 128.791 17.3674 128.532C17.1217 128.273 16.773 128.144 16.3213 128.144C15.9826 128.144 15.687 128.21 15.4346 128.343C15.1822 128.476 14.9863 128.672 14.8468 128.931C14.7139 129.19 14.6475 129.512 14.6475 129.897V132.617H13.6911V127.337H14.6077V128.762L14.4582 128.383C14.6309 128.038 14.8966 127.769 15.2553 127.576C15.6139 127.383 16.0324 127.287 16.5106 127.287ZM22.7341 132.677C22.2028 132.677 21.7312 132.561 21.3194 132.328C20.9076 132.096 20.5821 131.777 20.343 131.372C20.1039 130.96 19.9844 130.495 19.9844 129.977C19.9844 129.452 20.1039 128.987 20.343 128.582C20.5821 128.177 20.9076 127.861 21.3194 127.636C21.7312 127.403 22.2028 127.287 22.7341 127.287C23.2589 127.287 23.7272 127.403 24.1389 127.636C24.5574 127.861 24.8829 128.177 25.1153 128.582C25.3544 128.981 25.474 129.446 25.474 129.977C25.474 130.502 25.3544 130.967 25.1153 131.372C24.8829 131.777 24.5574 132.096 24.1389 132.328C23.7272 132.561 23.2589 132.677 22.7341 132.677ZM22.7341 131.84C23.0729 131.84 23.3751 131.764 23.6408 131.611C23.9131 131.458 24.1257 131.242 24.2784 130.963C24.4312 130.678 24.5076 130.349 24.5076 129.977C24.5076 129.598 24.4312 129.273 24.2784 129.001C24.1257 128.722 23.9131 128.506 23.6408 128.353C23.3751 128.2 23.0729 128.124 22.7341 128.124C22.3954 128.124 22.0932 128.2 21.8275 128.353C21.5618 128.506 21.3493 128.722 21.1899 129.001C21.0305 129.273 20.9508 129.598 20.9508 129.977C20.9508 130.349 21.0305 130.678 21.1899 130.963C21.3493 131.242 21.5618 131.458 21.8275 131.611C22.0932 131.764 22.3954 131.84 22.7341 131.84ZM28.0356 132.617L25.7242 127.337H26.7205L28.7729 132.119H28.2947L30.3871 127.337H31.3236L29.0122 132.617H28.0356ZM35.3284 132.617V131.501L35.2786 131.292V129.389C35.2786 128.984 35.1591 128.672 34.9199 128.453C34.6877 128.227 34.3355 128.114 33.8639 128.114C33.5519 128.114 33.2462 128.167 32.9473 128.273C32.6484 128.373 32.3962 128.509 32.1901 128.682L31.7916 127.964C32.064 127.745 32.3893 127.579 32.7679 127.466C33.1534 127.347 33.555 127.287 33.9735 127.287C34.6976 127.287 35.2556 127.463 35.6472 127.815C36.0392 128.167 36.2351 128.705 36.2351 129.429V132.617H35.3284ZM33.5949 132.677C33.2032 132.677 32.8576 132.611 32.5587 132.478C32.2667 132.345 32.0406 132.162 31.8812 131.93C31.7218 131.691 31.6421 131.422 31.6421 131.123C31.6421 130.837 31.7087 130.578 31.8414 130.346C31.9809 130.113 32.2035 129.927 32.5089 129.788C32.8212 129.648 33.2396 129.578 33.7642 129.578H35.438V130.266H33.8041C33.3259 130.266 33.0039 130.346 32.8377 130.505C32.6717 130.664 32.5886 130.857 32.5886 131.083C32.5886 131.342 32.6916 131.551 32.8975 131.711C33.1035 131.863 33.3891 131.94 33.7543 131.94C34.1129 131.94 34.4252 131.86 34.6908 131.701C34.9632 131.541 35.1591 131.309 35.2786 131.003L35.4679 131.661C35.3418 131.973 35.1192 132.222 34.8004 132.408C34.4816 132.587 34.0799 132.677 33.5949 132.677ZM39.8183 132.677C39.2872 132.677 38.8753 132.534 38.5829 132.249C38.2909 131.963 38.1446 131.555 38.1446 131.023V126.181H39.101V130.983C39.101 131.269 39.1707 131.488 39.3102 131.641C39.4565 131.794 39.6623 131.87 39.9279 131.87C40.2268 131.87 40.4759 131.787 40.6752 131.621L40.9741 132.308C40.828 132.434 40.6521 132.528 40.446 132.587C40.2467 132.647 40.0375 132.677 39.8183 132.677ZM37.2479 128.124V127.337H40.6154V128.124H37.2479ZM42.1303 132.617V127.337H43.0868V132.617H42.1303ZM42.6086 126.321C42.4227 126.321 42.2667 126.261 42.1403 126.141C42.0207 126.022 41.961 125.876 41.961 125.703C41.961 125.524 42.0207 125.374 42.1403 125.255C42.2667 125.135 42.4227 125.075 42.6086 125.075C42.7947 125.075 42.9473 125.135 43.0669 125.255C43.1932 125.368 43.2562 125.51 43.2562 125.683C43.2562 125.862 43.1964 126.015 43.0768 126.141C42.9573 126.261 42.8013 126.321 42.6086 126.321ZM47.1747 132.677C46.6433 132.677 46.1716 132.561 45.76 132.328C45.3481 132.096 45.0227 131.777 44.7836 131.372C44.5445 130.96 44.425 130.495 44.425 129.977C44.425 129.452 44.5445 128.987 44.7836 128.582C45.0227 128.177 45.3481 127.861 45.76 127.636C46.1716 127.403 46.6433 127.287 47.1747 127.287C47.6994 127.287 48.1676 127.403 48.5795 127.636C48.998 127.861 49.3233 128.177 49.5559 128.582C49.795 128.981 49.9146 129.446 49.9146 129.977C49.9146 130.502 49.795 130.967 49.5559 131.372C49.3233 131.777 48.998 132.096 48.5795 132.328C48.1676 132.561 47.6994 132.677 47.1747 132.677ZM47.1747 131.84C47.5135 131.84 47.8155 131.764 48.0814 131.611C48.3535 131.458 48.5662 131.242 48.719 130.963C48.8716 130.678 48.9482 130.349 48.9482 129.977C48.9482 129.598 48.8716 129.273 48.719 129.001C48.5662 128.722 48.3535 128.506 48.0814 128.353C47.8155 128.2 47.5135 128.124 47.1747 128.124C46.836 128.124 46.5337 128.2 46.2681 128.353C46.0022 128.506 45.7899 128.722 45.6305 129.001C45.4711 129.273 45.3914 129.598 45.3914 129.977C45.3914 130.349 45.4711 130.678 45.6305 130.963C45.7899 131.242 46.0022 131.458 46.2681 131.611C46.5337 131.764 46.836 131.84 47.1747 131.84ZM54.0569 127.287C54.4885 127.287 54.8671 127.37 55.1927 127.536C55.5246 127.702 55.7837 127.955 55.9698 128.293C56.1557 128.632 56.2488 129.06 56.2488 129.578V132.617H55.2923V129.688C55.2923 129.177 55.1659 128.791 54.9137 128.532C54.6678 128.273 54.3191 128.144 53.8676 128.144C53.5289 128.144 53.2331 128.21 52.9809 128.343C52.7284 128.476 52.5326 128.672 52.3931 128.931C52.2602 129.19 52.1938 129.512 52.1938 129.897V132.617H51.2374V127.337H52.154V128.762L52.0045 128.383C52.177 128.038 52.4429 127.769 52.8016 127.576C53.1603 127.383 53.5787 127.287 54.0569 127.287ZM59.5332 132.677C59.0948 132.677 58.6763 132.617 58.2778 132.498C57.8859 132.378 57.577 132.232 57.3513 132.059L57.7498 131.302C57.9755 131.455 58.2545 131.584 58.5867 131.691C58.9189 131.797 59.2576 131.85 59.6029 131.85C60.0478 131.85 60.3666 131.787 60.5594 131.661C60.7586 131.535 60.8582 131.358 60.8582 131.133C60.8582 130.967 60.7985 130.837 60.6789 130.744C60.5594 130.651 60.3999 130.581 60.2007 130.535C60.008 130.489 59.7922 130.449 59.5531 130.415C59.314 130.376 59.0749 130.329 58.8358 130.276C58.5966 130.216 58.3775 130.136 58.1782 130.037C57.9789 129.931 57.8195 129.788 57.7 129.608C57.5804 129.422 57.5206 129.177 57.5206 128.871C57.5206 128.552 57.6103 128.273 57.7896 128.034C57.969 127.795 58.2215 127.612 58.5468 127.486C58.879 127.353 59.2707 127.287 59.7225 127.287C60.0678 127.287 60.4165 127.33 60.7686 127.417C61.1272 127.496 61.4196 127.612 61.6453 127.765L61.2368 128.522C60.9977 128.363 60.7487 128.253 60.4896 128.194C60.2306 128.134 59.9715 128.104 59.7125 128.104C59.2941 128.104 58.9818 128.174 58.776 128.313C58.5702 128.446 58.4671 128.619 58.4671 128.831C58.4671 129.011 58.5269 129.15 58.6465 129.25C58.7726 129.343 58.932 129.416 59.1247 129.469C59.3239 129.522 59.5431 129.569 59.7822 129.608C60.0214 129.642 60.2605 129.688 60.4996 129.748C60.7387 129.801 60.9545 129.877 61.1472 129.977C61.3464 130.077 61.5058 130.216 61.6254 130.395C61.7515 130.575 61.8147 130.814 61.8147 131.113C61.8147 131.432 61.7216 131.707 61.5357 131.94C61.3499 132.172 61.0874 132.355 60.7487 132.488C60.4099 132.614 60.0048 132.677 59.5332 132.677ZM65.825 132.617V126.869C65.825 126.35 65.9744 125.939 66.2733 125.633C66.579 125.321 67.0106 125.165 67.5685 125.165C67.7746 125.165 67.9704 125.191 68.1563 125.245C68.349 125.291 68.5118 125.368 68.6445 125.474L68.3556 126.201C68.2559 126.121 68.1432 126.062 68.0168 126.022C67.8907 125.975 67.7578 125.952 67.6183 125.952C67.3393 125.952 67.127 126.032 66.9807 126.191C66.8346 126.344 66.7615 126.573 66.7615 126.878V127.586L66.7814 128.024V132.617H65.825ZM64.9283 128.124V127.337H68.2958V128.124H64.9283ZM71.3818 132.677C70.8503 132.677 70.3789 132.561 69.967 132.328C69.5551 132.096 69.2297 131.777 68.9906 131.372C68.7515 130.96 68.632 130.495 68.632 129.977C68.632 129.452 68.7515 128.987 68.9906 128.582C69.2297 128.177 69.5551 127.861 69.967 127.636C70.3789 127.403 70.8503 127.287 71.3818 127.287C71.9064 127.287 72.3746 127.403 72.7865 127.636C73.205 127.861 73.5304 128.177 73.7629 128.582C74.002 128.981 74.1216 129.446 74.1216 129.977C74.1216 130.502 74.002 130.967 73.7629 131.372C73.5304 131.777 73.205 132.096 72.7865 132.328C72.3746 132.561 71.9064 132.677 71.3818 132.677ZM71.3818 131.84C71.7205 131.84 72.0228 131.764 72.2884 131.611C72.5608 131.458 72.7732 131.242 72.926 130.963C73.0789 130.678 73.1552 130.349 73.1552 129.977C73.1552 129.598 73.0789 129.273 72.926 129.001C72.7732 128.722 72.5608 128.506 72.2884 128.353C72.0228 128.2 71.7205 128.124 71.3818 128.124C71.043 128.124 70.7407 128.2 70.4751 128.353C70.2095 128.506 69.9969 128.722 69.8375 129.001C69.6781 129.273 69.5984 129.598 69.5984 129.977C69.5984 130.349 69.6781 130.678 69.8375 130.963C69.9969 131.242 70.2095 131.458 70.4751 131.611C70.7407 131.764 71.043 131.84 71.3818 131.84ZM75.4444 132.617V127.337H76.361V128.771L76.2713 128.413C76.4174 128.048 76.663 127.769 77.0086 127.576C77.3539 127.383 77.7789 127.287 78.2839 127.287V128.214C78.244 128.207 78.2042 128.204 78.1643 128.204C78.131 128.204 78.0977 128.204 78.0647 128.204C77.5531 128.204 77.1481 128.356 76.8492 128.662C76.5503 128.967 76.4008 129.409 76.4008 129.987V132.617H75.4444ZM85.4843 132.617V131.501L85.4345 131.292V129.389C85.4345 128.984 85.3149 128.672 85.0758 128.453C84.8432 128.227 84.4911 128.114 84.0197 128.114C83.7074 128.114 83.402 128.167 83.1031 128.273C82.8042 128.373 82.5517 128.509 82.3459 128.682L81.9474 127.964C82.2195 127.745 82.5452 127.579 82.9238 127.466C83.3089 127.347 83.7109 127.287 84.1293 127.287C84.8532 127.287 85.4111 127.463 85.8031 127.815C86.1948 128.167 86.3909 128.705 86.3909 129.429V132.617H85.4843ZM83.7507 132.677C83.3587 132.677 83.0134 132.611 82.7146 132.478C82.4222 132.345 82.1965 132.162 82.0371 131.93C81.8777 131.691 81.798 131.422 81.798 131.123C81.798 130.837 81.8643 130.578 81.9972 130.346C82.1367 130.113 82.359 129.927 82.6647 129.788C82.9767 129.648 83.3952 129.578 83.9201 129.578H85.5939V130.266H83.9599C83.4817 130.266 83.1595 130.346 82.9935 130.505C82.8273 130.664 82.7444 130.857 82.7444 131.083C82.7444 131.342 82.8472 131.551 83.0533 131.711C83.2591 131.863 83.5446 131.94 83.9101 131.94C84.2688 131.94 84.5808 131.86 84.8466 131.701C85.1188 131.541 85.3149 131.309 85.4345 131.003L85.6238 131.661C85.4974 131.973 85.2751 132.222 84.9562 132.408C84.6374 132.587 84.2355 132.677 83.7507 132.677ZM90.9759 132.617V125.643H94.1043C94.9079 125.643 95.5256 125.806 95.9574 126.131C96.3892 126.45 96.605 126.888 96.605 127.446C96.605 127.825 96.5188 128.144 96.346 128.403C96.18 128.662 95.954 128.861 95.6685 129.001C95.383 129.14 95.0741 129.21 94.7419 129.21L94.9213 128.911C95.3198 128.911 95.6719 128.981 95.9773 129.12C96.2828 129.26 96.5253 129.465 96.7046 129.738C96.884 130.003 96.9736 130.336 96.9736 130.734C96.9736 131.332 96.7479 131.797 96.2961 132.129C95.8512 132.454 95.1868 132.617 94.3035 132.617H90.9759ZM91.9722 131.81H94.2637C94.8151 131.81 95.2367 131.717 95.529 131.531C95.8213 131.345 95.9674 131.053 95.9674 130.654C95.9674 130.249 95.8213 129.954 95.529 129.768C95.2367 129.582 94.8151 129.489 94.2637 129.489H91.8825V128.682H94.0146C94.5193 128.682 94.9113 128.589 95.1903 128.403C95.4692 128.217 95.6087 127.938 95.6087 127.566C95.6087 127.194 95.4692 126.915 95.1903 126.729C94.9113 126.543 94.5193 126.45 94.0146 126.45H91.9722V131.81ZM100.728 132.677C100.164 132.677 99.6654 132.561 99.2335 132.328C98.8085 132.096 98.4763 131.777 98.2372 131.372C98.0049 130.967 97.8885 130.502 97.8885 129.977C97.8885 129.452 98.0015 128.987 98.2273 128.582C98.4598 128.177 98.7752 127.861 99.1738 127.636C99.5791 127.403 100.034 127.287 100.539 127.287C101.05 127.287 101.502 127.4 101.894 127.626C102.286 127.851 102.591 128.17 102.81 128.582C103.036 128.987 103.149 129.462 103.149 130.007C103.149 130.047 103.146 130.093 103.139 130.146C103.139 130.2 103.136 130.249 103.129 130.296H98.6357V129.608H102.631L102.242 129.847C102.249 129.509 102.179 129.206 102.033 128.941C101.887 128.675 101.684 128.469 101.425 128.323C101.173 128.17 100.877 128.094 100.539 128.094C100.207 128.094 99.911 128.17 99.652 128.323C99.3929 128.469 99.1905 128.678 99.0442 128.951C98.8982 129.216 98.825 129.522 98.825 129.867V130.027C98.825 130.379 98.9048 130.694 99.0642 130.973C99.2304 131.246 99.4596 131.458 99.7516 131.611C100.044 131.764 100.379 131.84 100.758 131.84C101.07 131.84 101.353 131.787 101.605 131.681C101.864 131.574 102.09 131.415 102.282 131.202L102.81 131.82C102.571 132.099 102.272 132.312 101.914 132.458C101.562 132.604 101.166 132.677 100.728 132.677ZM106.29 132.677C105.759 132.677 105.347 132.534 105.055 132.249C104.763 131.963 104.617 131.555 104.617 131.023V126.181H105.573V130.983C105.573 131.269 105.643 131.488 105.782 131.641C105.928 131.794 106.134 131.87 106.4 131.87C106.699 131.87 106.948 131.787 107.147 131.621L107.446 132.308C107.3 132.434 107.124 132.528 106.918 132.587C106.719 132.647 106.51 132.677 106.29 132.677ZM103.72 128.124V127.337H107.088V128.124H103.72ZM110.289 132.677C109.758 132.677 109.346 132.534 109.054 132.249C108.762 131.963 108.616 131.555 108.616 131.023V126.181H109.572V130.983C109.572 131.269 109.642 131.488 109.781 131.641C109.927 131.794 110.133 131.87 110.399 131.87C110.698 131.87 110.947 131.787 111.146 131.621L111.445 132.308C111.299 132.434 111.123 132.528 110.917 132.587C110.718 132.647 110.509 132.677 110.289 132.677ZM107.719 128.124V127.337H111.086V128.124H107.719ZM114.778 132.677C114.213 132.677 113.715 132.561 113.283 132.328C112.858 132.096 112.526 131.777 112.287 131.372C112.054 130.967 111.938 130.502 111.938 129.977C111.938 129.452 112.051 128.987 112.277 128.582C112.509 128.177 112.825 127.861 113.223 127.636C113.628 127.403 114.083 127.287 114.588 127.287C115.1 127.287 115.551 127.4 115.943 127.626C116.335 127.851 116.641 128.17 116.86 128.582C117.086 128.987 117.199 129.462 117.199 130.007C117.199 130.047 117.195 130.093 117.189 130.146C117.189 130.2 117.185 130.249 117.179 130.296H112.685V129.608H116.68L116.292 129.847C116.298 129.509 116.229 129.206 116.083 128.941C115.936 128.675 115.734 128.469 115.475 128.323C115.222 128.17 114.927 128.094 114.588 128.094C114.256 128.094 113.961 128.17 113.702 128.323C113.443 128.469 113.24 128.678 113.094 128.951C112.947 129.216 112.875 129.522 112.875 129.867V130.027C112.875 130.379 112.954 130.694 113.114 130.973C113.28 131.246 113.509 131.458 113.801 131.611C114.093 131.764 114.429 131.84 114.807 131.84C115.119 131.84 115.402 131.787 115.654 131.681C115.913 131.574 116.139 131.415 116.332 131.202L116.86 131.82C116.621 132.099 116.322 132.312 115.963 132.458C115.611 132.604 115.216 132.677 114.778 132.677ZM118.526 132.617V127.337H119.443V128.771L119.353 128.413C119.5 128.048 119.745 127.769 120.091 127.576C120.436 127.383 120.861 127.287 121.366 127.287V128.214C121.326 128.207 121.286 128.204 121.246 128.204C121.213 128.204 121.18 128.204 121.147 128.204C120.636 128.204 120.23 128.356 119.931 128.662C119.632 128.967 119.483 129.409 119.483 129.987V132.617H118.526ZM126.813 132.617V126.51H124.422V125.643H130.19V126.51H127.799V132.617H126.813ZM132.853 132.677C132.321 132.677 131.85 132.561 131.438 132.328C131.026 132.096 130.701 131.777 130.462 131.372C130.223 130.96 130.103 130.495 130.103 129.977C130.103 129.452 130.223 128.987 130.462 128.582C130.701 128.177 131.026 127.861 131.438 127.636C131.85 127.403 132.321 127.287 132.853 127.287C133.377 127.287 133.846 127.403 134.258 127.636C134.676 127.861 135.001 128.177 135.234 128.582C135.473 128.981 135.593 129.446 135.593 129.977C135.593 130.502 135.473 130.967 135.234 131.372C135.001 131.777 134.676 132.096 134.258 132.328C133.846 132.561 133.377 132.677 132.853 132.677ZM132.853 131.84C133.191 131.84 133.494 131.764 133.759 131.611C134.032 131.458 134.244 131.242 134.397 130.963C134.55 130.678 134.626 130.349 134.626 129.977C134.626 129.598 134.55 129.273 134.397 129.001C134.244 128.722 134.032 128.506 133.759 128.353C133.494 128.2 133.191 128.124 132.853 128.124C132.514 128.124 132.212 128.2 131.946 128.353C131.681 128.506 131.468 128.722 131.308 129.001C131.149 129.273 131.069 129.598 131.069 129.977C131.069 130.349 131.149 130.678 131.308 130.963C131.468 131.242 131.681 131.458 131.946 131.611C132.212 131.764 132.514 131.84 132.853 131.84ZM143.521 127.287C143.946 127.287 144.321 127.37 144.647 127.536C144.972 127.702 145.225 127.955 145.404 128.293C145.59 128.632 145.683 129.06 145.683 129.578V132.617H144.726V129.688C144.726 129.177 144.607 128.791 144.368 128.532C144.129 128.273 143.793 128.144 143.361 128.144C143.043 128.144 142.764 128.21 142.525 128.343C142.285 128.476 142.1 128.672 141.967 128.931C141.841 129.19 141.777 129.512 141.777 129.897V132.617H140.821V129.688C140.821 129.177 140.701 128.791 140.462 128.532C140.23 128.273 139.894 128.144 139.456 128.144C139.144 128.144 138.868 128.21 138.629 128.343C138.39 128.476 138.204 128.672 138.071 128.931C137.938 129.19 137.872 129.512 137.872 129.897V132.617H136.915V127.337H137.832V128.742L137.683 128.383C137.848 128.038 138.104 127.769 138.45 127.576C138.795 127.383 139.197 127.287 139.655 127.287C140.16 127.287 140.595 127.413 140.96 127.666C141.326 127.911 141.565 128.287 141.678 128.791L141.289 128.632C141.449 128.227 141.728 127.901 142.126 127.656C142.525 127.41 142.989 127.287 143.521 127.287ZM149.704 132.677C149.173 132.677 148.701 132.561 148.289 132.328C147.878 132.096 147.552 131.777 147.313 131.372C147.074 130.96 146.954 130.495 146.954 129.977C146.954 129.452 147.074 128.987 147.313 128.582C147.552 128.177 147.878 127.861 148.289 127.636C148.701 127.403 149.173 127.287 149.704 127.287C150.229 127.287 150.697 127.403 151.109 127.636C151.527 127.861 151.853 128.177 152.085 128.582C152.324 128.981 152.444 129.446 152.444 129.977C152.444 130.502 152.324 130.967 152.085 131.372C151.853 131.777 151.527 132.096 151.109 132.328C150.697 132.561 150.229 132.677 149.704 132.677ZM149.704 131.84C150.043 131.84 150.345 131.764 150.611 131.611C150.883 131.458 151.096 131.242 151.248 130.963C151.401 130.678 151.478 130.349 151.478 129.977C151.478 129.598 151.401 129.273 151.248 129.001C151.096 128.722 150.883 128.506 150.611 128.353C150.345 128.2 150.043 128.124 149.704 128.124C149.365 128.124 149.063 128.2 148.798 128.353C148.532 128.506 148.319 128.722 148.16 129.001C148.001 129.273 147.921 129.598 147.921 129.977C147.921 130.349 148.001 130.678 148.16 130.963C148.319 131.242 148.532 131.458 148.798 131.611C149.063 131.764 149.365 131.84 149.704 131.84ZM153.767 132.617V127.337H154.683V128.771L154.594 128.413C154.74 128.048 154.986 127.769 155.331 127.576C155.676 127.383 156.102 127.287 156.606 127.287V128.214C156.566 128.207 156.527 128.204 156.487 128.204C156.453 128.204 156.42 128.204 156.387 128.204C155.876 128.204 155.471 128.356 155.172 128.662C154.873 128.967 154.723 129.409 154.723 129.987V132.617H153.767ZM157.785 132.617V127.337H158.702V128.771L158.612 128.413C158.758 128.048 159.004 127.769 159.349 127.576C159.695 127.383 160.12 127.287 160.625 127.287V128.214C160.585 128.207 160.545 128.204 160.505 128.204C160.472 128.204 160.439 128.204 160.405 128.204C159.894 128.204 159.489 128.356 159.19 128.662C158.891 128.967 158.742 129.409 158.742 129.987V132.617H157.785ZM164.017 132.677C163.485 132.677 163.013 132.561 162.602 132.328C162.19 132.096 161.864 131.777 161.625 131.372C161.386 130.96 161.267 130.495 161.267 129.977C161.267 129.452 161.386 128.987 161.625 128.582C161.864 128.177 162.19 127.861 162.602 127.636C163.013 127.403 163.485 127.287 164.017 127.287C164.541 127.287 165.009 127.403 165.421 127.636C165.84 127.861 166.165 128.177 166.398 128.582C166.637 128.981 166.756 129.446 166.756 129.977C166.756 130.502 166.637 130.967 166.398 131.372C166.165 131.777 165.84 132.096 165.421 132.328C165.009 132.561 164.541 132.677 164.017 132.677ZM164.017 131.84C164.355 131.84 164.657 131.764 164.923 131.611C165.195 131.458 165.408 131.242 165.561 130.963C165.713 130.678 165.79 130.349 165.79 129.977C165.79 129.598 165.713 129.273 165.561 129.001C165.408 128.722 165.195 128.506 164.923 128.353C164.657 128.2 164.355 128.124 164.017 128.124C163.678 128.124 163.375 128.2 163.11 128.353C162.844 128.506 162.632 128.722 162.472 129.001C162.313 129.273 162.233 129.598 162.233 129.977C162.233 130.349 162.313 130.678 162.472 130.963C162.632 131.242 162.844 131.458 163.11 131.611C163.375 131.764 163.678 131.84 164.017 131.84ZM169.049 132.617L167.086 127.337H167.993L169.736 132.119H169.308L171.121 127.337H171.928L173.702 132.119H173.283L175.067 127.337H175.923L173.951 132.617H173.034L171.37 128.253H171.649L169.966 132.617H169.049Z" fill="url(#paint7_linear_948_800)"/>
<defs>
<linearGradient id="paint0_linear_948_800" x1="133.572" y1="19.6081" x2="119.844" y2="81.5522" gradientUnits="userSpaceOnUse">
<stop stop-color="#FD95FF"/>
<stop offset="1" stop-color="#26A8F5"/>
</linearGradient>
<linearGradient id="paint1_linear_948_800" x1="121.618" y1="93.6193" x2="159.71" y2="39.4256" gradientUnits="userSpaceOnUse">
<stop stop-color="#339DDC"/>
<stop offset="1" stop-color="#AD59AE"/>
</linearGradient>
<linearGradient id="paint2_linear_948_800" x1="166.308" y1="82.1594" x2="128.453" y2="92.1577" gradientUnits="userSpaceOnUse">
<stop stop-color="#FD95FF"/>
<stop offset="1" stop-color="#26A8F5"/>
</linearGradient>
<linearGradient id="paint3_linear_948_800" x1="122.339" y1="96.5442" x2="162.836" y2="102.101" gradientUnits="userSpaceOnUse">
<stop stop-color="#339DDC"/>
<stop offset="1" stop-color="#AD59AE"/>
</linearGradient>
<linearGradient id="paint4_linear_948_800" x1="84.3865" y1="56.9638" x2="87.8291" y2="76.049" gradientUnits="userSpaceOnUse">
<stop stop-color="#AD59AE" stop-opacity="0.3"/>
<stop offset="1" stop-color="#AD59AE"/>
</linearGradient>
<linearGradient id="paint5_linear_948_800" x1="86.6064" y1="48.3585" x2="97.1999" y2="73.1753" gradientUnits="userSpaceOnUse">
<stop stop-color="#AD59AE" stop-opacity="0.12"/>
<stop offset="1" stop-color="#AD59AE"/>
</linearGradient>
<linearGradient id="paint6_linear_948_800" x1="0.356248" y1="105.005" x2="112.113" y2="105.005" gradientUnits="userSpaceOnUse">
<stop stop-color="#AD59AE"/>
<stop offset="1" stop-color="#26A8F5"/>
</linearGradient>
<linearGradient id="paint7_linear_948_800" x1="2.91873" y1="129.059" x2="175.991" y2="129.059" gradientUnits="userSpaceOnUse">
<stop stop-color="#AD59AE"/>
<stop offset="0.652988" stop-color="#4CA5F7"/>
<stop offset="1" stop-color="#26A8F5"/>
</linearGradient>
</defs>
</svg>
