<svg width="196" height="201" viewBox="0 0 196 201" fill="none" xmlns="http://www.w3.org/2000/svg">
<g clip-path="url(#clip0_882_1005)">
<g clip-path="url(#clip1_882_1005)">
<path d="M17.0924 170.513C16.8948 169.853 16.2864 169.4 15.6 169.4C14.9084 169.4 14.3 169.853 14.1024 170.513C12.9792 174.252 11.5284 176.919 9.5212 178.927C7.5192 180.929 4.8516 182.385 1.1128 183.508C0.4524 183.705 0 184.309 0 185C0 185.692 0.4524 186.295 1.1128 186.493C4.8516 187.616 7.5192 189.072 9.5212 191.074C11.5284 193.081 12.9844 195.749 14.1024 199.487C14.3 200.148 14.9084 200.6 15.6 200.6C16.2864 200.6 16.8948 200.148 17.0924 199.487C18.2156 195.749 19.6716 193.081 21.6736 191.074C23.6808 189.072 26.3484 187.616 30.0872 186.493C30.7476 186.295 31.2 185.692 31.2 185C31.2 184.309 30.7476 183.705 30.0872 183.508C26.3484 182.385 23.6808 180.929 21.6736 178.927C19.6716 176.919 18.2156 174.252 17.0924 170.513Z" fill="#E0C3E1"/>
</g>
</g>
<g clip-path="url(#clip2_882_1005)">
<g clip-path="url(#clip3_882_1005)">
<path d="M30.7082 23.5683C30.3464 22.9815 29.6416 22.702 28.9786 22.8797C28.3106 23.0587 27.84 23.6531 27.82 24.3421C27.7028 28.2443 26.9918 31.1965 25.5725 33.6548C24.1569 36.1067 21.9571 38.2035 18.6364 40.2561C18.0496 40.6179 17.7687 41.3176 17.9477 41.9857C18.1267 42.6537 18.7198 43.1193 19.4089 43.1392C23.311 43.2565 26.2645 43.9724 28.7165 45.3881C31.1748 46.8074 33.2716 49.0072 35.3192 52.3293C35.681 52.916 36.3857 53.1955 37.0538 53.0165C37.7168 52.8389 38.1873 52.2444 38.2073 51.5554C38.3245 47.6533 39.0405 44.6998 40.4548 42.2428C41.8754 39.7895 44.0753 37.6927 47.396 35.6401C47.9828 35.2783 48.2636 34.5786 48.0846 33.9105C47.9056 33.2425 47.3125 32.7769 46.6235 32.757C42.7214 32.6397 39.7678 31.9238 37.3109 30.5095C34.8576 29.0888 32.7608 26.889 30.7082 23.5683Z" fill="#E0C3E1"/>
</g>
</g>
<g clip-path="url(#clip4_882_1005)">
<g clip-path="url(#clip5_882_1005)">
<path d="M109.003 74.113C108.805 73.4526 108.197 73.0002 107.51 73.0002C106.819 73.0002 106.21 73.4526 106.013 74.113C104.889 77.8518 103.439 80.5194 101.431 82.5266C99.4294 84.5286 96.7618 85.9846 93.023 87.1078C92.3626 87.3054 91.9102 87.9086 91.9102 88.6002C91.9102 89.2918 92.3626 89.895 93.023 90.0926C96.7618 91.2158 99.4294 92.6718 101.431 94.6738C103.439 96.681 104.895 99.3486 106.013 103.087C106.21 103.748 106.819 104.2 107.51 104.2C108.197 104.2 108.805 103.748 109.003 103.087C110.126 99.3486 111.582 96.681 113.584 94.6738C115.591 92.6718 118.259 91.2158 121.997 90.0926C122.658 89.895 123.11 89.2918 123.11 88.6002C123.11 87.9086 122.658 87.3054 121.997 87.1078C118.259 85.9846 115.591 84.5286 113.584 82.5266C111.582 80.5194 110.126 77.8518 109.003 74.113Z" fill="#E0C3E1"/>
</g>
</g>
<defs>
<clipPath id="clip0_882_1005">
<rect width="104" height="31.2" fill="white" transform="translate(0 169.4)"/>
</clipPath>
<clipPath id="clip1_882_1005">
<rect width="104" height="31.2" fill="white" transform="translate(0 169.4)"/>
</clipPath>
<clipPath id="clip2_882_1005">
<rect width="104" height="31.2" fill="white" transform="translate(13.9102 26.9172) rotate(-15)"/>
</clipPath>
<clipPath id="clip3_882_1005">
<rect width="104" height="31.2" fill="white" transform="translate(13.9102 26.9172) rotate(-15)"/>
</clipPath>
<clipPath id="clip4_882_1005">
<rect width="104" height="31.2" fill="white" transform="translate(91.9102 73.0002)"/>
</clipPath>
<clipPath id="clip5_882_1005">
<rect width="104" height="31.2" fill="white" transform="translate(91.9102 73.0002)"/>
</clipPath>
</defs>
</svg>
